<svg width="133" height="72" viewBox="0 0 133 72" fill="none" xmlns="http://www.w3.org/2000/svg">
<g clip-path="url(#clip0_13:4)">
<path d="M64.4717 37.1057H53.6624H53.3496C49.0205 37.1057 45.0195 39.4091 42.8492 43.1516L38.7337 50.256H46.4689H65.635C65.6694 50.256 65.7037 50.2522 65.738 50.2522C77.8747 49.6545 87.7534 40.517 89.4431 28.7449H75.9218C74.3924 33.5916 69.8459 37.1057 64.4717 37.1057Z" fill="white"/>
<path d="M64.4709 13.1808C69.7764 13.1808 74.2809 16.6112 75.8676 21.3664H89.4193C87.5924 9.27834 77.1187 0.00762197 64.4709 0.0038147H58.2843H40.6819L33.2519 13.1808L29.1593 20.4032L17.3316 0.00762197H0.0305481L20.505 35.3315L29.1593 50.2599L37.8137 35.3277L50.6522 13.1846H64.4709V13.1808Z" fill="white"/>
<path d="M109.837 21.7052C108.322 21.7052 107.037 22.6875 106.587 24.0505H100.469H89.6786H76.432H64.7645C64.5967 23.5403 64.3106 23.0797 63.9368 22.7104C63.3189 22.0898 62.4607 21.7052 61.5148 21.7052C60.424 21.7052 59.4552 22.2154 58.8258 23.0073C58.3643 23.5898 58.0897 24.3246 58.0897 25.1204C58.0897 25.9199 58.3643 26.6547 58.8258 27.2334C59.4514 28.0253 60.424 28.5355 61.5148 28.5355C62.5294 28.5355 63.4372 28.0976 64.0627 27.3971C64.4021 27.0164 64.6615 26.5595 64.8064 26.0569H76.4473H89.6863H100.572H101.632H106.545C106.953 27.4885 108.273 28.5355 109.837 28.5355C111.728 28.5355 113.258 27.005 113.258 25.1204C113.258 23.2358 111.728 21.7052 109.837 21.7052Z" fill="white"/>
<path d="M118.399 25.1128L118.391 25.1242L118.357 25.0633L132.885 0.00761455H124.2V0H115.607L112.289 5.69949C112.216 5.81752 112.144 5.93174 112.075 6.05357L110.916 8.05239L110.485 8.78719V8.791L109.703 10.1388L103.836 0.00761455H86.5278L98.9124 21.3702H105.019C106.152 19.9197 107.914 19.025 109.836 19.025C113.204 19.025 115.946 21.7624 115.946 25.1242C115.946 28.486 113.204 31.2235 109.836 31.2235C107.868 31.2235 106.052 30.264 104.923 28.7449H103.188H99.0154L86.5278 50.2789H96.8413C101.17 50.2789 105.171 47.9755 107.342 44.2329L109.752 40.0716L109.764 40.0525L112.167 44.1987C114.333 47.9412 118.334 50.2446 122.667 50.2446H132.977L118.399 25.1128Z" fill="white"/>
</g>
<path d="M1.23779 62.8693H3.2373C4.14844 62.8693 4.80908 62.9997 5.21924 63.2604C5.63232 63.5182 5.83887 63.9299 5.83887 64.4953C5.83887 64.8791 5.74805 65.194 5.56641 65.4401C5.3877 65.6862 5.14893 65.8342 4.8501 65.884V65.9279C5.25732 66.0187 5.55029 66.1887 5.729 66.4377C5.91064 66.6867 6.00146 67.0178 6.00146 67.4308C6.00146 68.0168 5.78906 68.4738 5.36426 68.8019C4.94238 69.1301 4.36816 69.2941 3.6416 69.2941H1.23779V62.8693ZM2.6001 65.4138H3.39111C3.76025 65.4138 4.02686 65.3566 4.19092 65.2424C4.35791 65.1281 4.44141 64.9391 4.44141 64.6755C4.44141 64.4294 4.35059 64.2536 4.16895 64.1481C3.99023 64.0397 3.70605 63.9855 3.31641 63.9855H2.6001V65.4138ZM2.6001 66.4948V68.1691H3.48779C3.86279 68.1691 4.13965 68.0974 4.31836 67.9538C4.49707 67.8102 4.58643 67.5905 4.58643 67.2946C4.58643 66.7614 4.20557 66.4948 3.44385 66.4948H2.6001Z" fill="white"/>
<path d="M8.28467 69.2941V62.8693H9.64697V68.1691H12.2529V69.2941H8.28467Z" fill="white"/>
<path d="M20.2051 66.0729C20.2051 67.1364 19.9414 67.9538 19.4141 68.5251C18.8867 69.0964 18.1309 69.382 17.1465 69.382C16.1621 69.382 15.4062 69.0964 14.8789 68.5251C14.3516 67.9538 14.0879 67.1335 14.0879 66.0641C14.0879 64.9948 14.3516 64.1789 14.8789 63.6164C15.4092 63.051 16.168 62.7682 17.1553 62.7682C18.1426 62.7682 18.897 63.0524 19.4185 63.6208C19.9429 64.1891 20.2051 65.0065 20.2051 66.0729ZM15.5161 66.0729C15.5161 66.7907 15.6523 67.3312 15.9248 67.6945C16.1973 68.0578 16.6045 68.2394 17.1465 68.2394C18.2334 68.2394 18.7769 67.5173 18.7769 66.0729C18.7769 64.6257 18.2363 63.902 17.1553 63.902C16.6133 63.902 16.2046 64.0851 15.9292 64.4514C15.6538 64.8146 15.5161 65.3552 15.5161 66.0729Z" fill="white"/>
<path d="M25.2656 63.9108C24.7529 63.9108 24.356 64.1042 24.0747 64.4909C23.7935 64.8747 23.6528 65.4108 23.6528 66.0993C23.6528 67.5319 24.1904 68.2482 25.2656 68.2482C25.7168 68.2482 26.2632 68.1354 26.9048 67.9099V69.0524C26.3774 69.2722 25.7886 69.382 25.1382 69.382C24.2036 69.382 23.4888 69.0993 22.9937 68.5339C22.4985 67.9655 22.251 67.1511 22.251 66.0905C22.251 65.4225 22.3726 64.8381 22.6157 64.3371C22.8589 63.8332 23.2075 63.4479 23.6616 63.1813C24.1187 62.9118 24.6533 62.777 25.2656 62.777C25.8896 62.777 26.5166 62.9279 27.1465 63.2297L26.707 64.3371C26.4668 64.2228 26.2251 64.1232 25.9819 64.0383C25.7388 63.9533 25.5 63.9108 25.2656 63.9108Z" fill="white"/>
<path d="M34.4438 69.2941H32.897L31.2139 66.5871L30.6382 67.0002V69.2941H29.2759V62.8693H30.6382V65.8093L31.1743 65.0534L32.9146 62.8693H34.4263L32.1851 65.7126L34.4438 69.2941Z" fill="white"/>
<path d="M38.9814 63.9108C38.4688 63.9108 38.0718 64.1042 37.7905 64.4909C37.5093 64.8747 37.3687 65.4108 37.3687 66.0993C37.3687 67.5319 37.9062 68.2482 38.9814 68.2482C39.4326 68.2482 39.979 68.1354 40.6206 67.9099V69.0524C40.0933 69.2722 39.5044 69.382 38.854 69.382C37.9194 69.382 37.2046 69.0993 36.7095 68.5339C36.2144 67.9655 35.9668 67.1511 35.9668 66.0905C35.9668 65.4225 36.0884 64.8381 36.3315 64.3371C36.5747 63.8332 36.9233 63.4479 37.3774 63.1813C37.8345 62.9118 38.3691 62.777 38.9814 62.777C39.6055 62.777 40.2324 62.9279 40.8623 63.2297L40.4229 64.3371C40.1826 64.2228 39.9409 64.1232 39.6978 64.0383C39.4546 63.9533 39.2158 63.9108 38.9814 63.9108Z" fill="white"/>
<path d="M48.2563 69.2941H46.8984V66.5212H44.354V69.2941H42.9917V62.8693H44.354V65.3874H46.8984V62.8693H48.2563V69.2941Z" fill="white"/>
<path d="M54.8154 69.2941L54.3496 67.7648H52.0073L51.5415 69.2941H50.0737L52.3413 62.843H54.0068L56.2832 69.2941H54.8154ZM54.0244 66.6223C53.5938 65.2365 53.3506 64.4528 53.2949 64.2712C53.2422 64.0895 53.2041 63.946 53.1807 63.8405C53.084 64.2155 52.8071 65.1428 52.3501 66.6223H54.0244Z" fill="white"/>
<path d="M58.0962 69.2941V62.8693H59.4585V69.2941H58.0962Z" fill="white"/>
<path d="M67.7754 69.2941H66.0439L63.249 64.4338H63.2095C63.2651 65.2922 63.293 65.9045 63.293 66.2707V69.2941H62.0757V62.8693H63.7939L66.5845 67.6813H66.6152C66.5713 66.8464 66.5493 66.256 66.5493 65.9103V62.8693H67.7754V69.2941Z" fill="white"/>
<path d="M77.5273 67.5099C77.5273 68.09 77.3179 68.5471 76.8989 68.881C76.4829 69.215 75.9028 69.382 75.1587 69.382C74.4731 69.382 73.8667 69.2531 73.3394 68.9953V67.7297C73.7729 67.923 74.1392 68.0593 74.438 68.1384C74.7397 68.2175 75.0151 68.257 75.2642 68.257C75.563 68.257 75.7915 68.1999 75.9497 68.0856C76.1108 67.9714 76.1914 67.8015 76.1914 67.5759C76.1914 67.4499 76.1562 67.3386 76.0859 67.2419C76.0156 67.1423 75.9116 67.0471 75.7739 66.9562C75.6392 66.8654 75.3623 66.7204 74.9434 66.5212C74.5508 66.3366 74.2563 66.1594 74.0601 65.9894C73.8638 65.8195 73.707 65.6218 73.5898 65.3962C73.4727 65.1706 73.4141 64.9069 73.4141 64.6052C73.4141 64.0368 73.606 63.59 73.9897 63.2648C74.3765 62.9396 74.9097 62.777 75.5894 62.777C75.9233 62.777 76.2412 62.8166 76.543 62.8957C76.8477 62.9748 77.1655 63.0861 77.4966 63.2297L77.0571 64.2888C76.7144 64.1481 76.4302 64.05 76.2046 63.9943C75.9819 63.9387 75.7622 63.9108 75.5454 63.9108C75.2876 63.9108 75.0898 63.9709 74.9521 64.091C74.8145 64.2111 74.7456 64.3679 74.7456 64.5612C74.7456 64.6813 74.7734 64.7868 74.8291 64.8776C74.8848 64.9655 74.9727 65.0519 75.0928 65.1369C75.2158 65.2189 75.5044 65.3683 75.9585 65.5851C76.5591 65.8723 76.9707 66.1608 77.1934 66.4509C77.416 66.738 77.5273 67.091 77.5273 67.5099Z" fill="white"/>
<path d="M85.5234 66.0729C85.5234 67.1364 85.2598 67.9538 84.7324 68.5251C84.2051 69.0964 83.4492 69.382 82.4648 69.382C81.4805 69.382 80.7246 69.0964 80.1973 68.5251C79.6699 67.9538 79.4062 67.1335 79.4062 66.0641C79.4062 64.9948 79.6699 64.1789 80.1973 63.6164C80.7275 63.051 81.4863 62.7682 82.4736 62.7682C83.4609 62.7682 84.2153 63.0524 84.7368 63.6208C85.2612 64.1891 85.5234 65.0065 85.5234 66.0729ZM80.8345 66.0729C80.8345 66.7907 80.9707 67.3312 81.2432 67.6945C81.5156 68.0578 81.9229 68.2394 82.4648 68.2394C83.5518 68.2394 84.0952 67.5173 84.0952 66.0729C84.0952 64.6257 83.5547 63.902 82.4736 63.902C81.9316 63.902 81.5229 64.0851 81.2476 64.4514C80.9722 64.8146 80.8345 65.3552 80.8345 66.0729Z" fill="white"/>
<path d="M87.855 69.2941V62.8693H89.2173V68.1691H91.8232V69.2941H87.855Z" fill="white"/>
<path d="M99.1733 62.8693V67.0266C99.1733 67.5012 99.0664 67.9172 98.8525 68.2746C98.6416 68.632 98.3354 68.9059 97.9341 69.0964C97.5327 69.2868 97.0581 69.382 96.5103 69.382C95.6841 69.382 95.0425 69.1711 94.5854 68.7492C94.1284 68.3244 93.8999 67.7443 93.8999 67.009V62.8693H95.2578V66.8024C95.2578 67.2975 95.3574 67.6608 95.5566 67.8923C95.7559 68.1237 96.0854 68.2394 96.5454 68.2394C96.9907 68.2394 97.313 68.1237 97.5122 67.8923C97.7144 67.6579 97.8154 67.2917 97.8154 66.7936V62.8693H99.1733Z" fill="white"/>
<path d="M104.225 69.2941H102.863V64.0031H101.118V62.8693H105.97V64.0031H104.225V69.2941Z" fill="white"/>
<path d="M107.958 69.2941V62.8693H109.321V69.2941H107.958Z" fill="white"/>
<path d="M117.77 66.0729C117.77 67.1364 117.506 67.9538 116.979 68.5251C116.451 69.0964 115.695 69.382 114.711 69.382C113.727 69.382 112.971 69.0964 112.443 68.5251C111.916 67.9538 111.652 67.1335 111.652 66.0641C111.652 64.9948 111.916 64.1789 112.443 63.6164C112.974 63.051 113.732 62.7682 114.72 62.7682C115.707 62.7682 116.461 63.0524 116.983 63.6208C117.507 64.1891 117.77 65.0065 117.77 66.0729ZM113.081 66.0729C113.081 66.7907 113.217 67.3312 113.489 67.6945C113.762 68.0578 114.169 68.2394 114.711 68.2394C115.798 68.2394 116.341 67.5173 116.341 66.0729C116.341 64.6257 115.801 63.902 114.72 63.902C114.178 63.902 113.769 64.0851 113.494 64.4514C113.218 64.8146 113.081 65.3552 113.081 66.0729Z" fill="white"/>
<path d="M125.801 69.2941H124.069L121.274 64.4338H121.235C121.291 65.2922 121.318 65.9045 121.318 66.2707V69.2941H120.101V62.8693H121.819L124.61 67.6813H124.641C124.597 66.8464 124.575 66.256 124.575 65.9103V62.8693H125.801V69.2941Z" fill="white"/>
<path d="M132.215 67.5099C132.215 68.09 132.005 68.5471 131.586 68.881C131.17 69.215 130.59 69.382 129.846 69.382C129.161 69.382 128.554 69.2531 128.027 68.9953V67.7297C128.46 67.923 128.827 68.0593 129.125 68.1384C129.427 68.2175 129.703 68.257 129.952 68.257C130.25 68.257 130.479 68.1999 130.637 68.0856C130.798 67.9714 130.879 67.8015 130.879 67.5759C130.879 67.4499 130.844 67.3386 130.773 67.2419C130.703 67.1423 130.599 67.0471 130.461 66.9562C130.327 66.8654 130.05 66.7204 129.631 66.5212C129.238 66.3366 128.944 66.1594 128.748 65.9894C128.551 65.8195 128.395 65.6218 128.277 65.3962C128.16 65.1706 128.102 64.9069 128.102 64.6052C128.102 64.0368 128.293 63.59 128.677 63.2648C129.064 62.9396 129.597 62.777 130.277 62.777C130.611 62.777 130.929 62.8166 131.23 62.8957C131.535 62.9748 131.853 63.0861 132.184 63.2297L131.745 64.2888C131.402 64.1481 131.118 64.05 130.892 63.9943C130.669 63.9387 130.45 63.9108 130.233 63.9108C129.975 63.9108 129.777 63.9709 129.64 64.091C129.502 64.2111 129.433 64.3679 129.433 64.5612C129.433 64.6813 129.461 64.7868 129.517 64.8776C129.572 64.9655 129.66 65.0519 129.78 65.1369C129.903 65.2189 130.192 65.3683 130.646 65.5851C131.247 65.8723 131.658 66.1608 131.881 66.4509C132.104 66.738 132.215 67.091 132.215 67.5099Z" fill="white"/>
<defs>
<clipPath id="clip0_13:4">
<rect width="133" height="50.2941" fill="white"/>
</clipPath>
</defs>
</svg>
